<svg xmlns="http://www.w3.org/2000/svg" version="1.1" xmlns:xlink="http://www.w3.org/1999/xlink" xmlns:svgjs="http://svgjs.dev/svgjs" width="1440" height="560" preserveAspectRatio="none" viewBox="0 0 1440 560"><g mask="url(&quot;#SvgjsMask1151&quot;)" fill="none"><path d="M137.4 273.63L202.36 311.13L202.36 386.13L137.4 423.63L72.45 386.13L72.45 311.13zM267.31 273.63L332.26 311.13L332.26 386.13L267.31 423.63L202.36 386.13L202.36 311.13zM202.36 386.13L267.31 423.63L267.31 498.63L202.36 536.13L137.4 498.63L137.4 423.63zM332.26 -63.87L397.22 -26.37L397.22 48.63L332.26 86.13L267.31 48.63L267.31 -26.37zM397.22 498.63L462.17 536.13L462.17 611.13L397.22 648.63L332.26 611.13L332.26 536.13zM527.13 48.63L592.08 86.13L592.08 161.13L527.13 198.63L462.17 161.13L462.17 86.13zM462.17 161.13L527.13 198.63L527.13 273.63L462.17 311.13L397.22 273.63L397.22 198.63zM592.08 -63.87L657.03 -26.37L657.03 48.63L592.08 86.13L527.13 48.63L527.13 -26.37zM657.03 273.63L721.99 311.13L721.99 386.13L657.03 423.63L592.08 386.13L592.08 311.13zM721.99 -63.87L786.94 -26.37L786.94 48.63L721.99 86.13L657.03 48.63L657.03 -26.37zM721.99 386.13L786.94 423.63L786.94 498.63L721.99 536.13L657.03 498.63L657.03 423.63zM786.94 498.63L851.9 536.13L851.9 611.13L786.94 648.63L721.99 611.13L721.99 536.13zM916.85 48.63L981.8 86.13L981.8 161.13L916.85 198.63L851.89 161.13L851.89 86.13zM851.89 386.13L916.85 423.63L916.85 498.63L851.89 536.13L786.94 498.63L786.94 423.63zM981.8 -63.87L1046.76 -26.37L1046.76 48.63L981.8 86.13L916.85 48.63L916.85 -26.37zM1046.76 48.63L1111.71 86.13L1111.71 161.13L1046.76 198.63L981.8 161.13L981.8 86.13zM1111.71 161.13L1176.66 198.63L1176.66 273.63L1111.71 311.13L1046.76 273.63L1046.76 198.63zM1111.71 386.13L1176.66 423.63L1176.66 498.63L1111.71 536.13L1046.76 498.63L1046.76 423.63zM1176.66 498.63L1241.62 536.13L1241.62 611.13L1176.66 648.63L1111.71 611.13L1111.71 536.13zM1436.48 48.63L1501.43 86.13L1501.43 161.13L1436.48 198.63L1371.53 161.13L1371.53 86.13zM1371.53 161.13L1436.48 198.63L1436.48 273.63L1371.53 311.13L1306.57 273.63L1306.57 198.63zM1436.48 273.63L1501.43 311.13L1501.43 386.13L1436.48 423.63L1371.53 386.13L1371.53 311.13zM1501.43 386.13L1566.39 423.63L1566.39 498.63L1501.43 536.13L1436.48 498.63L1436.48 423.63z" stroke="rgba(60, 62, 115, 1)" stroke-width="2"></path><path d="M129.9 273.63 a7.5 7.5 0 1 0 15 0 a7.5 7.5 0 1 0 -15 0zM194.86 311.13 a7.5 7.5 0 1 0 15 0 a7.5 7.5 0 1 0 -15 0zM194.86 386.13 a7.5 7.5 0 1 0 15 0 a7.5 7.5 0 1 0 -15 0zM129.9 423.63 a7.5 7.5 0 1 0 15 0 a7.5 7.5 0 1 0 -15 0zM64.95 386.13 a7.5 7.5 0 1 0 15 0 a7.5 7.5 0 1 0 -15 0zM64.95 311.13 a7.5 7.5 0 1 0 15 0 a7.5 7.5 0 1 0 -15 0zM259.81 273.63 a7.5 7.5 0 1 0 15 0 a7.5 7.5 0 1 0 -15 0zM324.76 311.13 a7.5 7.5 0 1 0 15 0 a7.5 7.5 0 1 0 -15 0zM324.76 386.13 a7.5 7.5 0 1 0 15 0 a7.5 7.5 0 1 0 -15 0zM259.81 423.63 a7.5 7.5 0 1 0 15 0 a7.5 7.5 0 1 0 -15 0zM259.81 498.63 a7.5 7.5 0 1 0 15 0 a7.5 7.5 0 1 0 -15 0zM194.86 536.13 a7.5 7.5 0 1 0 15 0 a7.5 7.5 0 1 0 -15 0zM129.9 498.63 a7.5 7.5 0 1 0 15 0 a7.5 7.5 0 1 0 -15 0zM324.76 -63.87 a7.5 7.5 0 1 0 15 0 a7.5 7.5 0 1 0 -15 0zM389.72 -26.37 a7.5 7.5 0 1 0 15 0 a7.5 7.5 0 1 0 -15 0zM389.72 48.63 a7.5 7.5 0 1 0 15 0 a7.5 7.5 0 1 0 -15 0zM324.76 86.13 a7.5 7.5 0 1 0 15 0 a7.5 7.5 0 1 0 -15 0zM259.81 48.63 a7.5 7.5 0 1 0 15 0 a7.5 7.5 0 1 0 -15 0zM259.81 -26.37 a7.5 7.5 0 1 0 15 0 a7.5 7.5 0 1 0 -15 0zM389.72 498.63 a7.5 7.5 0 1 0 15 0 a7.5 7.5 0 1 0 -15 0zM454.67 536.13 a7.5 7.5 0 1 0 15 0 a7.5 7.5 0 1 0 -15 0zM454.67 611.13 a7.5 7.5 0 1 0 15 0 a7.5 7.5 0 1 0 -15 0zM389.72 648.63 a7.5 7.5 0 1 0 15 0 a7.5 7.5 0 1 0 -15 0zM324.76 611.13 a7.5 7.5 0 1 0 15 0 a7.5 7.5 0 1 0 -15 0zM324.76 536.13 a7.5 7.5 0 1 0 15 0 a7.5 7.5 0 1 0 -15 0zM519.63 48.63 a7.5 7.5 0 1 0 15 0 a7.5 7.5 0 1 0 -15 0zM584.58 86.13 a7.5 7.5 0 1 0 15 0 a7.5 7.5 0 1 0 -15 0zM584.58 161.13 a7.5 7.5 0 1 0 15 0 a7.5 7.5 0 1 0 -15 0zM519.63 198.63 a7.5 7.5 0 1 0 15 0 a7.5 7.5 0 1 0 -15 0zM454.67 161.13 a7.5 7.5 0 1 0 15 0 a7.5 7.5 0 1 0 -15 0zM454.67 86.13 a7.5 7.5 0 1 0 15 0 a7.5 7.5 0 1 0 -15 0zM519.63 273.63 a7.5 7.5 0 1 0 15 0 a7.5 7.5 0 1 0 -15 0zM454.67 311.13 a7.5 7.5 0 1 0 15 0 a7.5 7.5 0 1 0 -15 0zM389.72 273.63 a7.5 7.5 0 1 0 15 0 a7.5 7.5 0 1 0 -15 0zM389.72 198.63 a7.5 7.5 0 1 0 15 0 a7.5 7.5 0 1 0 -15 0zM584.58 -63.87 a7.5 7.5 0 1 0 15 0 a7.5 7.5 0 1 0 -15 0zM649.53 -26.37 a7.5 7.5 0 1 0 15 0 a7.5 7.5 0 1 0 -15 0zM649.53 48.63 a7.5 7.5 0 1 0 15 0 a7.5 7.5 0 1 0 -15 0zM519.63 -26.37 a7.5 7.5 0 1 0 15 0 a7.5 7.5 0 1 0 -15 0zM649.53 273.63 a7.5 7.5 0 1 0 15 0 a7.5 7.5 0 1 0 -15 0zM714.49 311.13 a7.5 7.5 0 1 0 15 0 a7.5 7.5 0 1 0 -15 0zM714.49 386.13 a7.5 7.5 0 1 0 15 0 a7.5 7.5 0 1 0 -15 0zM649.53 423.63 a7.5 7.5 0 1 0 15 0 a7.5 7.5 0 1 0 -15 0zM584.58 386.13 a7.5 7.5 0 1 0 15 0 a7.5 7.5 0 1 0 -15 0zM584.58 311.13 a7.5 7.5 0 1 0 15 0 a7.5 7.5 0 1 0 -15 0zM714.49 -63.87 a7.5 7.5 0 1 0 15 0 a7.5 7.5 0 1 0 -15 0zM779.44 -26.37 a7.5 7.5 0 1 0 15 0 a7.5 7.5 0 1 0 -15 0zM779.44 48.63 a7.5 7.5 0 1 0 15 0 a7.5 7.5 0 1 0 -15 0zM714.49 86.13 a7.5 7.5 0 1 0 15 0 a7.5 7.5 0 1 0 -15 0zM779.44 423.63 a7.5 7.5 0 1 0 15 0 a7.5 7.5 0 1 0 -15 0zM779.44 498.63 a7.5 7.5 0 1 0 15 0 a7.5 7.5 0 1 0 -15 0zM714.49 536.13 a7.5 7.5 0 1 0 15 0 a7.5 7.5 0 1 0 -15 0zM649.53 498.63 a7.5 7.5 0 1 0 15 0 a7.5 7.5 0 1 0 -15 0zM844.4 536.13 a7.5 7.5 0 1 0 15 0 a7.5 7.5 0 1 0 -15 0zM844.4 611.13 a7.5 7.5 0 1 0 15 0 a7.5 7.5 0 1 0 -15 0zM779.44 648.63 a7.5 7.5 0 1 0 15 0 a7.5 7.5 0 1 0 -15 0zM714.49 611.13 a7.5 7.5 0 1 0 15 0 a7.5 7.5 0 1 0 -15 0zM909.35 48.63 a7.5 7.5 0 1 0 15 0 a7.5 7.5 0 1 0 -15 0zM974.3 86.13 a7.5 7.5 0 1 0 15 0 a7.5 7.5 0 1 0 -15 0zM974.3 161.13 a7.5 7.5 0 1 0 15 0 a7.5 7.5 0 1 0 -15 0zM909.35 198.63 a7.5 7.5 0 1 0 15 0 a7.5 7.5 0 1 0 -15 0zM844.39 161.13 a7.5 7.5 0 1 0 15 0 a7.5 7.5 0 1 0 -15 0zM844.39 86.13 a7.5 7.5 0 1 0 15 0 a7.5 7.5 0 1 0 -15 0zM844.39 386.13 a7.5 7.5 0 1 0 15 0 a7.5 7.5 0 1 0 -15 0zM909.35 423.63 a7.5 7.5 0 1 0 15 0 a7.5 7.5 0 1 0 -15 0zM909.35 498.63 a7.5 7.5 0 1 0 15 0 a7.5 7.5 0 1 0 -15 0zM844.39 536.13 a7.5 7.5 0 1 0 15 0 a7.5 7.5 0 1 0 -15 0zM974.3 -63.87 a7.5 7.5 0 1 0 15 0 a7.5 7.5 0 1 0 -15 0zM1039.26 -26.37 a7.5 7.5 0 1 0 15 0 a7.5 7.5 0 1 0 -15 0zM1039.26 48.63 a7.5 7.5 0 1 0 15 0 a7.5 7.5 0 1 0 -15 0zM909.35 -26.37 a7.5 7.5 0 1 0 15 0 a7.5 7.5 0 1 0 -15 0zM1104.21 86.13 a7.5 7.5 0 1 0 15 0 a7.5 7.5 0 1 0 -15 0zM1104.21 161.13 a7.5 7.5 0 1 0 15 0 a7.5 7.5 0 1 0 -15 0zM1039.26 198.63 a7.5 7.5 0 1 0 15 0 a7.5 7.5 0 1 0 -15 0zM1169.16 198.63 a7.5 7.5 0 1 0 15 0 a7.5 7.5 0 1 0 -15 0zM1169.16 273.63 a7.5 7.5 0 1 0 15 0 a7.5 7.5 0 1 0 -15 0zM1104.21 311.13 a7.5 7.5 0 1 0 15 0 a7.5 7.5 0 1 0 -15 0zM1039.26 273.63 a7.5 7.5 0 1 0 15 0 a7.5 7.5 0 1 0 -15 0zM1104.21 386.13 a7.5 7.5 0 1 0 15 0 a7.5 7.5 0 1 0 -15 0zM1169.16 423.63 a7.5 7.5 0 1 0 15 0 a7.5 7.5 0 1 0 -15 0zM1169.16 498.63 a7.5 7.5 0 1 0 15 0 a7.5 7.5 0 1 0 -15 0zM1104.21 536.13 a7.5 7.5 0 1 0 15 0 a7.5 7.5 0 1 0 -15 0zM1039.26 498.63 a7.5 7.5 0 1 0 15 0 a7.5 7.5 0 1 0 -15 0zM1039.26 423.63 a7.5 7.5 0 1 0 15 0 a7.5 7.5 0 1 0 -15 0zM1234.12 536.13 a7.5 7.5 0 1 0 15 0 a7.5 7.5 0 1 0 -15 0zM1234.12 611.13 a7.5 7.5 0 1 0 15 0 a7.5 7.5 0 1 0 -15 0zM1169.16 648.63 a7.5 7.5 0 1 0 15 0 a7.5 7.5 0 1 0 -15 0zM1104.21 611.13 a7.5 7.5 0 1 0 15 0 a7.5 7.5 0 1 0 -15 0zM1428.98 48.63 a7.5 7.5 0 1 0 15 0 a7.5 7.5 0 1 0 -15 0zM1493.93 86.13 a7.5 7.5 0 1 0 15 0 a7.5 7.5 0 1 0 -15 0zM1493.93 161.13 a7.5 7.5 0 1 0 15 0 a7.5 7.5 0 1 0 -15 0zM1428.98 198.63 a7.5 7.5 0 1 0 15 0 a7.5 7.5 0 1 0 -15 0zM1364.03 161.13 a7.5 7.5 0 1 0 15 0 a7.5 7.5 0 1 0 -15 0zM1364.03 86.13 a7.5 7.5 0 1 0 15 0 a7.5 7.5 0 1 0 -15 0zM1428.98 273.63 a7.5 7.5 0 1 0 15 0 a7.5 7.5 0 1 0 -15 0zM1364.03 311.13 a7.5 7.5 0 1 0 15 0 a7.5 7.5 0 1 0 -15 0zM1299.07 273.63 a7.5 7.5 0 1 0 15 0 a7.5 7.5 0 1 0 -15 0zM1299.07 198.63 a7.5 7.5 0 1 0 15 0 a7.5 7.5 0 1 0 -15 0zM1493.93 311.13 a7.5 7.5 0 1 0 15 0 a7.5 7.5 0 1 0 -15 0zM1493.93 386.13 a7.5 7.5 0 1 0 15 0 a7.5 7.5 0 1 0 -15 0zM1428.98 423.63 a7.5 7.5 0 1 0 15 0 a7.5 7.5 0 1 0 -15 0zM1364.03 386.13 a7.5 7.5 0 1 0 15 0 a7.5 7.5 0 1 0 -15 0zM1558.89 423.63 a7.5 7.5 0 1 0 15 0 a7.5 7.5 0 1 0 -15 0zM1558.89 498.63 a7.5 7.5 0 1 0 15 0 a7.5 7.5 0 1 0 -15 0zM1493.93 536.13 a7.5 7.5 0 1 0 15 0 a7.5 7.5 0 1 0 -15 0zM1428.98 498.63 a7.5 7.5 0 1 0 15 0 a7.5 7.5 0 1 0 -15 0z" fill="rgba(60, 62, 115, 1)"></path><path d="M31.25 -3.69L74.55 21.31L74.55 71.31L31.25 96.31L-12.05 71.31L-12.05 21.31zM117.86 146.31L161.16 171.31L161.16 221.31L117.86 246.31L74.55 221.31L74.55 171.31zM161.16 221.31L204.46 246.31L204.46 296.31L161.16 321.31L117.86 296.31L117.86 246.31zM161.16 521.31L204.46 546.31L204.46 596.31L161.16 621.31L117.86 596.31L117.86 546.31zM247.76 371.31L291.06 396.31L291.06 446.31L247.76 471.31L204.46 446.31L204.46 396.31zM204.46 446.31L247.76 471.31L247.76 521.31L204.46 546.31L161.16 521.31L161.16 471.31zM291.06 -3.69L334.37 21.31L334.37 71.31L291.06 96.31L247.76 71.31L247.76 21.31zM291.06 146.31L334.37 171.31L334.37 221.31L291.06 246.31L247.76 221.31L247.76 171.31zM334.37 221.31L377.67 246.31L377.67 296.31L334.37 321.31L291.06 296.31L291.06 246.31zM334.37 521.31L377.67 546.31L377.67 596.31L334.37 621.31L291.06 596.31L291.06 546.31zM377.67 -3.69L420.97 21.31L420.97 71.31L377.67 96.31L334.37 71.31L334.37 21.31zM420.97 221.31L464.28 246.31L464.28 296.31L420.97 321.31L377.67 296.31L377.67 246.31zM464.28 446.31L507.58 471.31L507.58 521.31L464.28 546.31L420.97 521.31L420.97 471.31zM550.88 -3.69L594.18 21.31L594.18 71.31L550.88 96.31L507.58 71.31L507.58 21.31zM594.18 371.31L637.49 396.31L637.49 446.31L594.18 471.31L550.88 446.31L550.88 396.31zM680.79 371.31L724.09 396.31L724.09 446.31L680.79 471.31L637.49 446.31L637.49 396.31zM810.7 -3.69L854 21.31L854 71.31L810.7 96.31L767.39 71.31L767.39 21.31zM854 221.31L897.3 246.31L897.3 296.31L854 321.31L810.7 296.31L810.7 246.31zM940.6 71.31L983.91 96.31L983.91 146.31L940.6 171.31L897.3 146.31L897.3 96.31zM940.6 221.31L983.91 246.31L983.91 296.31L940.6 321.31L897.3 296.31L897.3 246.31zM940.6 521.31L983.91 546.31L983.91 596.31L940.6 621.31L897.3 596.31L897.3 546.31zM1027.21 221.31L1070.51 246.31L1070.51 296.31L1027.21 321.31L983.91 296.31L983.91 246.31zM1113.81 71.31L1157.12 96.31L1157.12 146.31L1113.81 171.31L1070.51 146.31L1070.51 96.31zM1113.81 371.31L1157.12 396.31L1157.12 446.31L1113.81 471.31L1070.51 446.31L1070.51 396.31zM1157.12 -3.69L1200.42 21.31L1200.42 71.31L1157.12 96.31L1113.81 71.31L1113.81 21.31zM1287.02 71.31L1330.33 96.31L1330.33 146.31L1287.02 171.31L1243.72 146.31L1243.72 96.31zM1243.72 296.31L1287.02 321.31L1287.02 371.31L1243.72 396.31L1200.42 371.31L1200.42 321.31zM1243.72 446.31L1287.02 471.31L1287.02 521.31L1243.72 546.31L1200.42 521.31L1200.42 471.31z" stroke="rgba(79, 46, 84, 1)" stroke-width="2"></path></g><defs><mask id="SvgjsMask1151"><rect width="1440" height="560" fill="#ffffff"></rect></mask></defs></svg>