<?xml version="1.0" encoding="UTF-8" standalone="no"?>
<!-- Created with Inkscape (http://www.inkscape.org/) -->

<svg
   xmlns:dc="http://purl.org/dc/elements/1.1/"
   xmlns:cc="http://creativecommons.org/ns#"
   xmlns:rdf="http://www.w3.org/1999/02/22-rdf-syntax-ns#"
   xmlns:svg="http://www.w3.org/2000/svg"
   xmlns="http://www.w3.org/2000/svg"
   xmlns:sodipodi="http://sodipodi.sourceforge.net/DTD/sodipodi-0.dtd"
   xmlns:inkscape="http://www.inkscape.org/namespaces/inkscape"
   width="210"
   height="75"
   viewBox="0 0 55.562502 19.84375"
   version="1.1"
   id="svg905"
   inkscape:version="0.92.2 (5c3e80d, 2017-08-06)"
   sodipodi:docname="Logo Ubisoft (2017).svg">
  <defs
     id="defs899">
    <clipPath
       clipPathUnits="userSpaceOnUse"
       id="clipPath840">
      <path
         d="m 348.1,16.689 c -1.237,0 -2.435,0.262 -3.59,0.801 -0.868,0.405 -1.644,0.944 -2.328,1.614 -1.215,1.192 -2.007,2.62 -2.374,4.282 -0.094,0.424 -0.151,0.853 -0.176,1.287 l -0.012,0.065 c 0,0.294 0,0.589 0,0.883 l 0.012,0.057 c 0.016,0.169 0.027,0.339 0.046,0.507 0.097,0.845 0.309,1.658 0.643,2.44 0.049,0.113 0.1,0.225 0.151,0.339 -0.234,0.167 -0.462,0.33 -0.687,0.491 l 0.008,0.025 c 0.501,0.908 1.108,1.735 1.862,2.451 1.485,1.41 3.247,2.206 5.289,2.378 l 0.246,0.026 c 0.3,0 0.6,0 0.899,0 l 0.262,-0.028 c 1.972,-0.167 3.72,-0.881 5.223,-2.167 1.418,-1.213 2.34,-2.738 2.786,-4.55 0.167,-0.677 0.243,-1.366 0.265,-2.063 0.023,-0.725 -0.032,-1.44 -0.185,-2.147 -0.288,-1.325 -0.863,-2.512 -1.718,-3.563 -0.771,-0.945 -1.705,-1.691 -2.796,-2.237 -0.832,-0.417 -1.709,-0.691 -2.632,-0.812 -0.402,-0.052 -0.8,-0.079 -1.194,-0.079 m -3.121,9.863 c -0.578,-0.333 -1.148,-0.959 -1.447,-1.585 -0.464,-0.971 -0.539,-1.982 -0.26,-3.011 0.429,-1.578 1.419,-2.683 2.917,-3.326 0.702,-0.301 1.431,-0.444 2.18,-0.444 0.237,0 0.476,0.014 0.717,0.042 0.791,0.093 1.547,0.301 2.261,0.654 1.49,0.737 2.567,1.882 3.241,3.39 0.634,1.417 0.802,2.906 0.519,4.435 -0.293,1.577 -1.017,2.93 -2.184,4.033 -1.442,1.363 -3.173,2.048 -5.151,2.112 -0.068,0.002 -0.137,0.004 -0.205,0.004 -0.562,0 -1.118,-0.075 -1.665,-0.213 -1.513,-0.381 -2.771,-1.164 -3.738,-2.398 -0.117,-0.149 -0.222,-0.308 -0.334,-0.463 l 0.143,-0.139 c 0.449,0.325 0.917,0.609 1.415,0.842 0.974,0.457 1.98,0.707 3.022,0.707 0.359,0 0.721,-0.03 1.087,-0.091 1.365,-0.226 2.551,-0.821 3.519,-1.81 1.361,-1.389 1.963,-3.05 1.703,-4.994 -0.098,-0.744 -0.333,-1.446 -0.721,-2.092 -0.862,-1.44 -2.331,-2.272 -3.924,-2.272 -0.29,0 -0.584,0.028 -0.88,0.084 -0.782,0.15 -1.472,0.492 -2.031,1.064 -0.812,0.832 -1.155,1.846 -1.046,2.995 0.083,0.866 0.418,1.641 0.99,2.305 l 0.012,0.02 -0.14,0.151 m 2.854,-0.447 c -0.111,0 -0.223,-0.01 -0.335,-0.031 -1.293,-0.238 -2.124,-1.471 -1.86,-2.76 0.215,-1.048 1.175,-1.833 2.246,-1.833 10e-4,0 0.002,0 0.003,0 0.644,10e-4 1.198,0.228 1.658,0.68 0.096,0.095 0.178,0.203 0.269,0.309 -0.219,0.153 -0.422,0.294 -0.631,0.44 l 0.048,0.054 c 0.371,0.434 0.536,0.934 0.469,1.501 -0.11,0.943 -0.942,1.64 -1.867,1.64 m -1.452,3.623 c -0.231,0 -0.462,-0.015 -0.692,-0.047 -1.229,-0.168 -2.283,-0.703 -3.147,-1.6 -1.227,-1.273 -1.788,-3.244 -1.228,-5.034 0.045,-0.144 0.1,-0.285 0.151,-0.431 l 0.157,0.054 0.051,0.083 c -0.044,0.406 -0.015,0.812 0.041,1.214 0.101,0.72 0.33,1.399 0.695,2.03 0.912,1.576 2.52,2.448 4.221,2.448 0.342,0 0.688,-0.035 1.033,-0.107 1.088,-0.227 2.009,-0.761 2.795,-1.534 0.205,-0.203 0.384,-0.432 0.577,-0.647 l 0.069,-0.036 0.168,0.058 -0.004,0.031 c -0.133,0.492 -0.348,0.945 -0.643,1.361 -0.967,1.366 -2.591,2.157 -4.244,2.157"
         id="path838"
         inkscape:connector-curvature="0" />
    </clipPath>
  </defs>
  <sodipodi:namedview
     id="base"
     pagecolor="#ffffff"
     bordercolor="#666666"
     borderopacity="1.0"
     inkscape:pageopacity="0.0"
     inkscape:pageshadow="2"
     inkscape:zoom="3.959798"
     inkscape:cx="38.343919"
     inkscape:cy="4.4164715"
     inkscape:document-units="mm"
     inkscape:current-layer="layer1"
     showgrid="false"
     fit-margin-top="4"
     fit-margin-left="4"
     fit-margin-right="4"
     fit-margin-bottom="4"
     units="px"
     inkscape:window-width="1600"
     inkscape:window-height="837"
     inkscape:window-x="-8"
     inkscape:window-y="-8"
     inkscape:window-maximized="1" />
  <metadata
     id="metadata902">
    <rdf:RDF>
      <cc:Work
         rdf:about="">
        <dc:format>image/svg+xml</dc:format>
        <dc:type
           rdf:resource="http://purl.org/dc/dcmitype/StillImage" />
        <dc:title></dc:title>
      </cc:Work>
    </rdf:RDF>
  </metadata>
  <g
     inkscape:label="Calque 1"
     inkscape:groupmode="layer"
     id="layer1"
     transform="translate(-106.46811,-127.86881)">
    <g
       transform="matrix(0.96762758,0,0,-0.96762758,-220.83465,162.4768)"
       id="g834">
      <g
         id="g836"
         clip-path="url(#clipPath840)">
        <path
           d="m 339.62,16.689 h 17.029 V 34.335 H 339.62 Z"
           style="fill:#131413;fill-opacity:1;fill-rule:nonzero;stroke:none"
           id="path842"
           inkscape:connector-curvature="0" />
      </g>
    </g>
    <g
       id="g963"
       transform="translate(0.26458615,-0.32616018)">
      <g
         transform="matrix(0.96762758,0,0,-0.96762758,158.66848,141.27614)"
         id="g844">
        <path
           inkscape:connector-curvature="0"
           id="path846"
           style="fill:#131413;fill-opacity:1;fill-rule:nonzero;stroke:none"
           d="m 0,0 c -0.477,0 -0.944,0 -1.422,0 0,1.725 0,3.452 0,5.184 -0.618,0 -1.226,0 -1.841,0 0,0.45 0,0.895 0,1.351 h 0.08 c 1.645,0 3.29,0 4.935,0 L 1.834,6.527 c 0,-0.447 0,-0.893 0,-1.34 -0.608,0 -1.217,0 -1.834,0 C 0,3.455 0,1.73 0,0" />
      </g>
      <g
         transform="matrix(0.96762758,0,0,-0.96762758,146.80342,141.3971)"
         id="g848">
        <path
           inkscape:connector-curvature="0"
           id="path850"
           style="fill:#131413;fill-opacity:1;fill-rule:nonzero;stroke:none"
           d="m 0,0 c -0.617,0 -1.215,0.159 -1.777,0.501 -0.916,0.557 -1.404,1.392 -1.478,2.461 -0.048,0.696 0.086,1.357 0.454,1.961 0.164,0.268 0.371,0.501 0.621,0.711 l -0.235,0.219 c 0.098,0.085 0.183,0.166 0.277,0.237 0.436,0.33 0.932,0.52 1.466,0.616 0.251,0.045 0.502,0.07 0.751,0.07 0.37,0 0.736,-0.055 1.097,-0.18 C 2.306,6.204 3.008,5.409 3.292,4.256 3.497,3.425 3.425,2.606 3.051,1.83 2.616,0.927 1.903,0.348 0.931,0.115 0.617,0.039 0.306,0 0,0 M 0.044,5.428 C -0.251,5.428 -0.543,5.364 -0.83,5.242 -1.042,5.151 -1.227,5.02 -1.39,4.845 L -1.178,4.647 C -1.319,4.474 -1.465,4.326 -1.574,4.155 -1.805,3.794 -1.855,3.388 -1.805,2.969 -1.751,2.512 -1.562,2.118 -1.213,1.811 -0.848,1.49 -0.418,1.358 0.052,1.358 c 0.036,0 0.072,0 0.109,0.002 C 0.939,1.392 1.553,1.838 1.812,2.564 2.002,3.096 2.008,3.636 1.828,4.17 1.631,4.751 1.246,5.16 0.65,5.338 0.447,5.399 0.245,5.428 0.044,5.428" />
      </g>
      <g
         transform="matrix(0.96762758,0,0,-0.96762758,133.22468,141.28294)"
         id="g852">
        <path
           inkscape:connector-curvature="0"
           id="path854"
           style="fill:#131413;fill-opacity:1;fill-rule:nonzero;stroke:none"
           d="m 0,0 c -0.403,0 -0.806,0.002 -1.209,0.002 h -0.098 c 0,2.179 0,4.355 0,6.54 h 0.082 c 0.425,0 0.85,0.001 1.275,0.001 0.283,0 0.566,0 0.849,-0.002 C 1.377,6.538 1.84,6.46 2.255,6.205 2.781,5.883 3.007,5.404 2.952,4.796 2.937,4.629 2.899,4.46 2.843,4.302 2.73,3.985 2.505,3.759 2.205,3.608 L 2.124,3.565 C 2.251,3.5 2.375,3.445 2.491,3.376 3.011,3.069 3.255,2.604 3.269,2.009 3.281,1.499 3.133,1.048 2.779,0.675 2.474,0.353 2.091,0.165 1.662,0.08 1.425,0.034 1.18,0.009 0.938,0.005 0.625,0.001 0.313,0 0,0 M 0.131,2.894 0.116,2.884 c 0,-0.538 0,-1.077 0,-1.617 0.197,0 0.391,-0.003 0.583,-0.003 0.13,0 0.26,10e-4 0.39,0.006 C 1.286,1.279 1.475,1.343 1.62,1.488 1.875,1.744 1.892,2.058 1.797,2.379 1.704,2.698 1.45,2.847 1.141,2.873 0.938,2.89 0.734,2.893 0.53,2.893 c -0.032,0 -0.065,0 -0.097,-10e-4 -0.029,0 -0.058,0 -0.088,0 -0.071,0 -0.143,10e-4 -0.214,0.002 M 0.128,5.283 0.116,5.274 c 0,-0.451 0,-0.902 0,-1.358 0.181,0 0.36,-0.006 0.536,-0.006 0.111,0 0.221,0.002 0.331,0.01 0.363,0.024 0.6,0.289 0.61,0.645 C 1.604,4.952 1.392,5.23 1.016,5.268 0.877,5.282 0.736,5.286 0.595,5.286 0.529,5.286 0.463,5.285 0.397,5.284 0.328,5.283 0.26,5.283 0.192,5.283 c -0.021,0 -0.043,0 -0.064,0" />
      </g>
      <g
         transform="matrix(0.96762758,0,0,-0.96762758,128.6604,141.34392)"
         id="g856">
        <path
           inkscape:connector-curvature="0"
           id="path858"
           style="fill:#131413;fill-opacity:1;fill-rule:nonzero;stroke:none"
           d="m 0,0 c -0.321,0 -0.642,0.049 -0.962,0.148 -0.897,0.277 -1.431,0.902 -1.654,1.804 -0.066,0.262 -0.09,0.53 -0.09,0.8 0,1.267 0,2.533 0,3.8 v 0.105 c 0.48,0 0.949,0 1.427,0 v -0.1 c 0,-1.244 0,-2.488 0,-3.732 0,-0.21 0.024,-0.416 0.084,-0.616 0.157,-0.522 0.54,-0.821 1.09,-0.849 0.037,-0.002 0.074,-0.003 0.11,-0.003 0.317,0 0.612,0.075 0.858,0.302 C 1.078,1.856 1.188,2.111 1.235,2.392 1.262,2.559 1.278,2.73 1.278,2.899 1.282,4.117 1.28,5.336 1.28,6.554 v 0.102 c 0.476,0 0.944,0 1.422,0 V 6.574 c 0,-1.288 10e-4,-2.575 0,-3.862 C 2.701,2.24 2.614,1.785 2.401,1.358 2.11,0.775 1.653,0.378 1.038,0.172 0.694,0.057 0.347,0 0,0" />
      </g>
      <g
         transform="matrix(0.96762758,0,0,-0.96762758,141.00926,141.39132)"
         id="g860">
        <path
           inkscape:connector-curvature="0"
           id="path862"
           style="fill:#131413;fill-opacity:1;fill-rule:nonzero;stroke:none"
           d="m 0,0 c -0.484,0 -0.952,0.113 -1.396,0.368 -0.407,0.234 -0.694,0.579 -0.879,1.01 l 0.014,0.097 c 0.358,0.262 0.714,0.528 1.071,0.792 l 0.021,0.009 0.122,-0.244 c 0.272,-0.445 0.658,-0.698 1.185,-0.698 0.008,0 0.016,0 0.024,0 0.2,0.003 0.388,0.058 0.54,0.196 0.304,0.277 0.272,0.739 -0.066,1 -0.208,0.16 -0.446,0.262 -0.687,0.355 -0.343,0.131 -0.691,0.25 -1.01,0.438 -0.327,0.192 -0.613,0.427 -0.788,0.771 -0.361,0.71 -0.265,1.81 0.723,2.37 0.382,0.217 0.793,0.302 1.222,0.302 C 0.148,6.766 0.2,6.765 0.253,6.762 0.697,6.742 1.121,6.646 1.504,6.408 1.833,6.205 2.074,5.925 2.239,5.568 1.862,5.306 1.488,5.047 1.109,4.783 L 1.01,4.966 C 0.775,5.383 0.412,5.54 0.067,5.54 -0.054,5.54 -0.172,5.521 -0.281,5.487 -0.497,5.421 -0.657,5.287 -0.699,5.049 -0.729,4.876 -0.673,4.729 -0.553,4.604 -0.397,4.442 -0.199,4.341 0.005,4.257 0.331,4.123 0.662,4.004 0.989,3.873 1.229,3.777 1.457,3.655 1.666,3.499 2.081,3.191 2.298,2.777 2.326,2.261 2.358,1.698 2.233,1.182 1.86,0.746 1.537,0.369 1.118,0.15 0.635,0.061 0.421,0.021 0.209,0 0,0" />
      </g>
      <g
         transform="matrix(0.96762758,0,0,-0.96762758,152.02668,141.27518)"
         id="g864">
        <path
           inkscape:connector-curvature="0"
           id="path866"
           style="fill:#131413;fill-opacity:1;fill-rule:nonzero;stroke:none"
           d="m 0,0 c -0.479,0 -0.949,0 -1.425,0 0,2.176 0,4.351 0,6.53 1.491,0 2.981,0 4.476,0 0,-0.451 0,-0.892 0,-1.341 -1.017,0 -2.03,0 -3.049,0 0,-0.507 0,-1.005 0,-1.511 0.924,0 1.844,0 2.769,0 0,-0.364 0,-0.721 0,-1.086 -0.922,0 -1.842,0 -2.771,0 C 0,1.724 0,0.865 0,0" />
      </g>
      <g
         transform="matrix(0.96762758,0,0,-0.96762758,138.29024,141.27714)"
         id="g868">
        <path
           inkscape:connector-curvature="0"
           id="path870"
           style="fill:#131413;fill-opacity:1;fill-rule:nonzero;stroke:none"
           d="m 0,0 c -0.473,0 -0.941,0 -1.414,0 0,2.178 0,4.353 0,6.532 0.47,0 0.939,0 1.414,0 C 0,4.354 0,2.178 0,0" />
      </g>
    </g>
  </g>
</svg>
