<svg xmlns="http://www.w3.org/2000/svg" role="img" viewBox="62.53 215.03 674.44 168.44"><style>svg {enable-background:new 0 0 800 600}</style><style>.st0{fill:#7f187f}.st1{fill:#82d170}.st2{fill:#f8cf1c}.st3{fill:#c6d636}.st4{fill:#d57dea}</style><path d="M303.3 262.9h-28.5c-2.6 0-4.6 2.2-4.8 4.8v6.4c0 1.7 1.4 3 3.1 3h4.8c.1 0 .3.1.3.2.1.1.1.3.1.5l-11.1 33.5c-.1.2-.3.3-.5.3s-.4-.1-.4-.3l-16.7-45.4c-.4-1.1-1.5-1.8-2.7-1.9h-10.1c-1.2.1-2.3.9-2.7 1.9l-16.8 45.4c0 .2-.2.3-.4.3s-.4-.1-.5-.3l-11.1-33.5c0-.2 0-.3.1-.5.1-.1.2-.2.3-.2h4.8c1.7 0 3.1-1.4 3.1-3v-6.4c0-2.6-2.2-4.8-4.8-4.8h-28.5c-1 0-1.9.5-2.6 1.3-.5.8-.8 1.7-.4 2.6.4 1.2.9 2.6 1.4 4 .5 1.4 1 2.8 1.4 4 .4 1.3 1.6 2.2 2.9 2.2h4.8c.2 0 .4.1.5.4l22.2 65.3c.4 1.3 1.6 2.2 2.9 2.2h6.9c1.3 0 2.4-.8 2.9-1.9 6.2-17.6 17.7-51.4 18.3-52.4.1-.2.3-.4.5-.4s.4.1.5.4c.4 1.2 12.1 34.8 18.3 52.5.4 1.2 1.6 2.1 2.9 2.1h6.9c1.3 0 2.5-.9 2.9-2.2l22.2-65.3c.2-.4.4-.4.5-.4h4.8c1.3 0 2.5-.9 2.9-2.1.4-1.3 1-2.7 1.4-4 .4-1.4 1-2.8 1.4-4 .3-.9.1-1.8-.4-2.6-1.1-1.2-2.1-1.7-3-1.7zm334.3 68.8h-5.2c-.8 0-1.4-.6-1.5-1.5v-64.3c0-1.2-1-2.1-2.1-2.1h-15.2c-.6 0-1.3.3-1.6.8l-6.3 7.9c-.3.3-.4.9-.4 1.3 0 1.1.9 2.1 2.1 2.2h1.9c.8 0 1.4.6 1.5 1.5V330c0 .4-.1.9-.4 1.2-1.6 2.2-5.3 6.7-7 9-.3.4-.5.9-.5 1.4 0 1.2 1 2.1 2.1 2.2h26.5c.5 0 1.1-.2 1.5-.5l6.2-7.8c1.1-1.8.1-3.8-1.6-3.8z" class="st0"/><circle cx="620.7" cy="243.8" r="11.4" class="st0"/><path d="M720.9 270.5c0-1.1-.5-2.2-2.1-2.2h-2.6v6.9h1v-2.6h.9l1.7 2.6h1.2l-1.8-2.6c1.2-.1 1.7-1.2 1.7-2.1zm-3.7 1.3v-2.6h1.7c.6 0 1.1.5 1.1 1.2v.1c.1.6-.4 1.2-1.1 1.3h-1.7z" class="st0"/><path d="M718.4 265.8c-3.2 0-5.9 2.7-5.9 5.9s2.7 5.9 5.9 5.9 5.9-2.7 5.9-5.9-2.7-5.9-5.9-5.9zm0 11c-2.8 0-5.1-2.3-5.1-5.1v-.1c0-2.7 2.3-5 5-5h.1c2.8 0 5.1 2.3 5.1 5.1-.1 2.9-2.4 5.1-5.1 5.1zM377.8 332c-4.4.2-6.6-1.8-6.6-6.9V289c0-15.8-13.3-25.8-28.1-25.8-23.1 0-31.5 11-32.4 23.2-.1 1.2.9 2.2 2.1 2.3h11.5c1.1 0 1.9-.9 2.1-1.9.5-6.4 4.9-11.1 12.1-11.1 8 0 12.8 4 12.8 13.2v7.9h-4.1c-14.3 0-24 1.8-30.6 5.9s-9.9 11.8-9.9 20.7c0 6.6 2.3 12 6.8 16.3 4.5 4.3 9.8 6.2 16.8 6.2 4.1 0 8.2-1 12-2.7 3.7-1.6 7.1-3.8 10.1-6.5.6-.5 1.5-.5 2.2.1.1.1.2.2.2.3 3.2 5.7 6.8 7.6 13.5 7.6 6.1 0 9-5.7 11.7-9.1.6-1.6-.5-3.7-2.2-3.6zm-26.6-5.7c-.1.5-.9 1.2-1.2 1.5-1.8 1.5-3.9 2.9-6.1 3.9-1.9.9-4.1 1.3-6.3 1.2-3.1 0-6.3-1.2-8.3-3.5-2.1-2.3-3.2-5.3-3.1-8.4 0-4.8 1.7-7.9 5.3-10.2 3.6-2.4 9.3-3.5 16.3-3.5h3.5l-.1 19zm243.7 5.7c-4.4.2-6.6-1.8-6.6-6.9V289c0-15.8-13.3-25.8-28.1-25.8-23.1 0-31.5 11-32.4 23.2-.1 1.2.9 2.2 2.1 2.3h11.5c1.1 0 1.9-.9 2.1-1.9.5-6.4 4.9-11.1 12.1-11.1 8 0 12.8 4 12.8 13.2v7.9h-4.1c-14.3 0-24 1.8-30.6 5.9s-9.9 11.8-9.9 20.7c0 6.6 2.3 12 6.8 16.3 4.5 4.3 9.8 6.2 16.8 6.2 4.1 0 8.2-1 12-2.7 3.7-1.6 7.1-3.8 10.1-6.5.6-.5 1.5-.5 2.2.1.1.1.2.2.2.3 3.2 5.7 6.8 7.6 13.5 7.6 6.1 0 9-5.7 11.7-9.1.5-1.6-.6-3.7-2.2-3.6zm-26.7-5.7c-.1.5-.9 1.2-1.2 1.5-1.8 1.5-3.9 2.9-6.1 3.9-1.9.9-4.1 1.3-6.3 1.2-3.1 0-6.3-1.2-8.3-3.5-2.1-2.3-3.2-5.3-3.1-8.4 0-4.8 1.7-7.9 5.3-10.2 3.6-2.4 9.3-3.5 16.3-3.5h3.5v18.9h-.1zm134.3-62.8c-1.1-.5-3.7-.9-5.9-.9-3.7 0-6.6.5-9.2 1.6l-.2.1c-1 .4-1.8 1-2.7 1.6-3.2 2.1-6.2 4.5-8.5 7.4-2.5 2.9-1.1.9-1.3-.5v-7.1c0-1.2-1-2.1-2.2-2.2h-15.2c-.6 0-1.2.3-1.5.8-.4.4-4.8 5.9-6.4 8-1 1.2-.3 3.5 1.6 3.5h1.9c.9 0 1.5.6 1.5 1.5v52.9c0 .4-.1.9-.3 1.2-1.5 1.8-5.3 6.6-7.1 9-.3.3-.4.9-.4 1.3 0 1.2 1 2.1 2.1 2.2h32.8c1.2 0 2.2-1 2.2-2.2v-7.9c0-1.2-1-2.2-2.2-2.2h-5.2c-.9 0-1.5-.6-1.5-1.5v-30.8c.5-14.7 9.3-19.1 13.5-20.4l.6-.2h.2c1.2-.3 2.3-.4 3.5-.4 5 0 6.8.8 9.5 1.4 1.1.3 2.2-1 2.2-2.2v-12c-.3-.9-1.1-1.6-1.8-2zm-178.4.3h-23.8c-.9 0-1.5-.6-1.5-1.5v-11.8c0-5.7 2.9-11.4 9-11.4 6.9 0 8 5.8 8.2 10.2.1 1.1 1 1.9 2.1 2.1h9.8c1.1 0 1.9-1 1.9-2.1-.2-14.7-9.5-21-24.5-21-9.1 0-15.1 2.8-19.6 8.3-4.5 5.5-6.8 11.6-6.8 22.6v2.9c0 .8-.6 1.4-1.5 1.5l-40.5.1h-.1c-1.2 0-2.1 1-2.1 2.1v8c0 1.2 1 2.2 2.2 2.2h4.3c.9 0 1.5.6 1.5 1.5 0 .2 0 .4-.1.5-.1.2-11.1 26-15.7 36.4-.2.5-.8.9-1.4.9-.6 0-1.1-.3-1.4-.9-4.6-10.5-15.9-36.4-15.9-36.4-.1-.2-.1-.3-.1-.5 0-.9.6-1.5 1.5-1.5h3c1.2 0 2.2-1 2.2-2.2v-8c0-1.2-1-2.1-2.1-2.1h-36.8c-1.2 0-2.1 1-2.2 2.2 0 .3.1.6.2 1 1.1 1.9 3.6 6.6 4.2 8 .3.6 1.1 1.1 1.7 1.1h7c.5 0 1.1.3 1.4.9.2.5 26.1 58.6 27 60.7 1 2.6 1 5.5 0 8.1-1.2 4.8-9.2 13.4-13.6 11.8-3-1.1-3.5-6.6-7.1-7.2-.6-.1-1.4 0-1.9.2-.6.2-6.6 7.9-7.9 9.2-.6.9-.6 2.1 0 2.8 3.2 3.4 8.8 7.9 16.5 8.1 9.6.4 19.2-.9 28-17.7 0 0 28.1-68.7 31.5-76.1.3-.5.8-.8 1.4-.8H477c.9 0 1.5.6 1.5 1.5v52.8c0 .4-.1.9-.4 1.2-1.7 2.3-5.3 6.7-7 9-.3.3-.4.9-.4 1.3 0 1.2 1 2.1 2.1 2.1H506c1.2 0 2.2-1 2.2-2.2v-7.9c0-1.2-1-2.2-2.2-2.2h-5.4c-.8 0-1.4-.6-1.5-1.5v-52.8c0-.8.6-1.4 1.5-1.5H518c.6 0 1.3-.3 1.6-.8 1.5-1.9 4.5-5.8 6.1-8 .3-.3.4-.9.4-1.3 0-1-.9-1.8-2-1.9z" class="st0"/><path d="M166.2 289.2l-5.7-21.6c-.2-.8-.8-1.3-1.5-1.5l-21.6-5.7c-.8-.2-1.5 0-1.9.5L121 275.4l30.3 30.3 14.5-14.5c.4-.5.6-1.3.4-2z" class="st1"/><path d="M75.7 322.1l5.7 21.6c.2.8.8 1.3 1.5 1.5l21.6 5.7c.8.2 1.5 0 1.9-.5L121 336l-30.3-30.3-14.5 14.5c-.5.5-.8 1.3-.5 1.9z" class="st2"/><path d="M104.4 260.4l-21.6 5.7c-.8.2-1.3.8-1.5 1.5l-5.7 21.6c-.2.8 0 1.5.5 1.9l14.6 14.5 30.3-30.3-14.5-14.5c-.6-.4-1.3-.6-2.1-.4z" class="st3"/><path d="M165.5 320l-14.3-14.3L121 336l14.3 14.3c.6.6 1.6.9 2.5.6l21-5.6c.9-.2 1.6-1 1.8-1.8l5.6-21c.2-.9 0-1.9-.7-2.5z" class="st4"/><path d="M121 275.4l-30.3 30.3L121 336l30.3-30.3-30.3-30.3z" class="st0"/><path d="M166.2 289.2l-5.7-21.6c-.2-.8-.8-1.3-1.5-1.5l-21.6-5.7c-.8-.2-1.5 0-1.9.5L121 275.4l30.3 30.3 14.5-14.5c.4-.5.6-1.3.4-2z" class="st1"/><path d="M75.7 322.1l5.7 21.6c.2.8.8 1.3 1.5 1.5l21.6 5.7c.8.2 1.5 0 1.9-.5L121 336l-30.3-30.3-14.5 14.5c-.5.5-.8 1.3-.5 1.9z" class="st2"/><path d="M104.4 260.4l-21.6 5.7c-.8.2-1.3.8-1.5 1.5l-5.7 21.6c-.2.8 0 1.5.5 1.9l14.6 14.5 30.3-30.3-14.5-14.5c-.6-.4-1.3-.6-2.1-.4z" class="st3"/><path d="M165.5 320l-14.3-14.3L121 336l14.3 14.3c.6.6 1.6.9 2.5.6l21-5.6c.9-.2 1.6-1 1.8-1.8l5.6-21c.2-.9 0-1.9-.7-2.5z" class="st4"/><path d="M121 275.4l-30.3 30.3L121 336l30.3-30.3-30.3-30.3z" class="st0"/></svg>